<?xml version="1.0" standalone="no"?>
<!DOCTYPE svg PUBLIC "-//W3C//DTD SVG 20010904//EN"
 "http://www.w3.org/TR/2001/REC-SVG-20010904/DTD/svg10.dtd">
<svg version="1.0" xmlns="http://www.w3.org/2000/svg"
 width="1920.000000pt" height="1920.000000pt" viewBox="0 0 1920.000000 1920.000000"
 preserveAspectRatio="xMidYMid meet">

<g transform="translate(0.000000,1920.000000) scale(0.100000,-0.100000)"
fill="#000000" stroke="none">
<path d="M9509 18364 c-52 -159 -720 -2194 -1484 -4521 -765 -2328 -1393
-4232 -1396 -4230 -4 1 -901 1196 -1994 2655 -1093 1459 -1989 2651 -1991
2649 -3 -2 72 -325 166 -718 94 -393 202 -847 240 -1009 38 -162 246 -1036
464 -1941 l395 -1646 945 -1254 c520 -690 946 -1260 946 -1267 0 -7 -461
-1416 -1024 -3131 l-1025 -3119 21 -138 c11 -77 21 -140 22 -141 1 -1 495 -5
1098 -9 l1096 -7 96 294 c53 162 374 1147 713 2189 339 1042 619 1898 622
1902 3 4 181 -224 395 -507 214 -283 391 -515 395 -515 3 0 21 17 39 37 l34
38 -32 -42 c-17 -24 -30 -47 -28 -51 10 -27 1363 -1830 1370 -1826 4 3 393
517 865 1142 1356 1798 1315 1746 1323 1731 4 -8 312 -944 686 -2081 373
-1138 681 -2068 684 -2068 6 0 10 19 586 2387 l417 1711 -388 1074 c-214 590
-390 1081 -393 1090 -2 11 329 458 933 1259 515 683 941 1252 946 1263 7 18
570 2366 1100 4591 93 391 171 719 173 729 3 10 1 15 -3 10 -5 -5 -892 -1180
-1971 -2612 -1080 -1432 -1966 -2599 -1971 -2595 -16 17 -1953 5834 -2429
7293 -275 844 -511 1566 -523 1604 l-23 68 -95 -288z m787 -8783 c376 -1108
684 -2018 684 -2023 0 -11 -2072 -2762 -2103 -2793 -11 -11 138 190 332 448
193 257 351 472 351 478 0 6 -296 403 -657 882 -361 480 -657 879 -657 887 1
15 1342 4137 1352 4155 3 5 8 2 10 -5 3 -8 313 -921 688 -2029z m-1456 -4871
c-11 -16 -26 -33 -32 -36 -7 -4 1 9 16 29 34 44 46 50 16 7z m-220 -290 c-99
-132 -183 -240 -185 -240 -3 0 76 108 175 240 99 132 183 240 185 240 3 0 -76
-108 -175 -240z m-190 -254 c0 -2 -8 -10 -17 -17 -16 -13 -17 -12 -4 4 13 16
21 21 21 13z m-30 -40 c0 -2 -8 -10 -17 -17 -16 -13 -17 -12 -4 4 13 16 21 21
21 13z m-30 -40 c0 -2 -8 -10 -17 -17 -16 -13 -17 -12 -4 4 13 16 21 21 21 13z
m-30 -40 c0 -2 -8 -10 -17 -17 -16 -13 -17 -12 -4 4 13 16 21 21 21 13z m-30
-40 c0 -2 -8 -10 -17 -17 -16 -13 -17 -12 -4 4 13 16 21 21 21 13z"/>
</g>
</svg>
